<svg id="visual" viewBox="0 0 900 600" width="900" height="600" xmlns="http://www.w3.org/2000/svg" xmlns:xlink="http://www.w3.org/1999/xlink" version="1.1"><rect x="0" y="0" width="900" height="200" fill="#d3ccdd"></rect><path d="M0 172L21.5 162.7C43 153.3 86 134.7 128.8 119.2C171.7 103.7 214.3 91.3 257.2 96.8C300 102.3 343 125.7 385.8 145.7C428.7 165.7 471.3 182.3 514.2 185.8C557 189.3 600 179.7 642.8 164.5C685.7 149.3 728.3 128.7 771.2 117.8C814 107 857 106 878.5 105.5L900 105L900 0L878.5 0C857 0 814 0 771.2 0C728.3 0 685.7 0 642.8 0C600 0 557 0 514.2 0C471.3 0 428.7 0 385.8 0C343 0 300 0 257.2 0C214.3 0 171.7 0 128.8 0C86 0 43 0 21.5 0L0 0Z" fill="#a32fbd" stroke-linecap="round" stroke-linejoin="miter"></path></svg>